<!-- assets/linkedin.svg -->
 <svg xmlns="http://www.w3.org/2000/svg" viewBox="0 0 24 24" width="32" height="32">
                                <path fill="#e0e0e0"
                                    d="M22.23 0H1.77C.79 0 0 .77 0 1.72v20.56C0 23.23.79 24 1.77 24h20.46c.98 0 1.77-.77 1.77-1.72V1.72C24 .77 23.21 0 22.23 0zM7.09 20.45H3.56V9h3.53v11.45zM5.32 7.58c-1.13 0-2.05-.92-2.05-2.05s.92-2.05 2.05-2.05 2.05.92 2.05 2.05-.92 2.05-2.05 2.05zM20.45 20.45h-3.53v-5.6c0-1.34-.03-3.07-1.87-3.07-1.87 0-2.16 1.46-2.16 2.97v5.7h-3.53V9h3.39v1.56h.05c.47-.89 1.62-1.83 3.34-1.83 3.57 0 4.23 2.35 4.23 5.41v6.31z" />
                            </svg>