<!-- assets/sun.svg -->
<svg width="32" height="32" viewBox="0 0 32 32" xmlns="http://www.w3.org/2000/svg">
    <defs>
        <radialGradient id="sunGradient" cx="50%" cy="50%" r="50%" fx="50%" fy="50%">
            <stop offset="0%" style="stop-color:yellow;stop-opacity:1" />
            <stop offset="100%" style="stop-color:darkorange;stop-opacity:1" />
        </radialGradient>
    </defs>
    <circle cx="16" cy="16" r="8" fill="url(#sunGradient)" />
    <polygon points="16,0 18,6 14,6" fill="darkorange" />
    <polygon points="16,32 18,26 14,26" fill="darkorange" />
    <polygon points="0,16 6,18 6,14" fill="darkorange" />
    <polygon points="32,16 26,18 26,14" fill="darkorange" />
    <polygon points="4,4 8,8 6,10 2,6" fill="darkorange" />
    <polygon points="28,4 24,8 26,10 30,6" fill="darkorange" />
    <polygon points="4,28 8,24 6,22 2,26" fill="darkorange" />
    <polygon points="28,28 24,24 26,22 30,26" fill="darkorange" />
</svg>